<?xml version="1.0" encoding="UTF-8" standalone="no"?><!DOCTYPE svg PUBLIC "-//W3C//DTD SVG 1.1//EN" "http://www.w3.org/Graphics/SVG/1.1/DTD/svg11.dtd"><!-- Generated by graphviz version 2.40.1 (20161225.0304)
 --><!-- Title: G Pages: 1 --><svg xmlns="http://www.w3.org/2000/svg" xmlns:xlink="http://www.w3.org/1999/xlink" width="744pt" height="1006pt" viewBox="0.00 0.00 744.31 1006.00">
<g id="graph0" class="graph" transform="scale(1 1) rotate(0) translate(4 1002)">
<title>G</title>
<polygon fill="#ffffff" stroke="transparent" points="-4,4 -4,-1002 740.3126,-1002 740.3126,4 -4,4"/>
<!-- deb.debian.org/debian/dists/testing -->
<g id="node1" class="node">
<title>deb.debian.org/debian/dists/testing</title>
<ellipse fill="none" stroke="#000000" cx="399" cy="-980" rx="145.8475" ry="18"/>
<text text-anchor="middle" x="399" y="-975.8" font-family="Times,serif" font-size="14.00" fill="#000000">deb.debian.org/debian/dists/testing</text>
</g>
<!-- github.com/gardenlinux/package&#45;snapshot -->
<g id="node2" class="node">
<title>github.com/gardenlinux/package-snapshot</title>
<ellipse fill="none" stroke="#000000" cx="399" cy="-891.2" rx="174.7912" ry="18"/>
<text text-anchor="middle" x="399" y="-887" font-family="Times,serif" font-size="14.00" fill="#000000">github.com/gardenlinux/package-snapshot</text>
</g>
<!-- deb.debian.org/debian/dists/testing&#45;&gt;github.com/gardenlinux/package&#45;snapshot -->
<g id="edge1" class="edge">
<title>deb.debian.org/debian/dists/testing-&gt;github.com/gardenlinux/package-snapshot</title>
<path fill="none" stroke="#000000" d="M399,-961.6006C399,-949.4949 399,-933.4076 399,-919.6674"/>
<polygon fill="#000000" stroke="#000000" points="402.5001,-919.272 399,-909.272 395.5001,-919.2721 402.5001,-919.272"/>
<text text-anchor="middle" x="472.4916" y="-931.4" font-family="Times,serif" font-size="14.00" fill="#000000">pulled daily at 00:00 UTC</text>
</g>
<!-- s3://gardenlinux&#45;repo&#45;test -->
<g id="node3" class="node">
<title>s3://gardenlinux-repo-test</title>
<ellipse fill="none" stroke="#000000" cx="273" cy="-785.6" rx="110.5917" ry="18"/>
<text text-anchor="middle" x="273" y="-781.4" font-family="Times,serif" font-size="14.00" fill="#000000">s3://gardenlinux-repo-test</text>
</g>
<!-- github.com/gardenlinux/package&#45;snapshot&#45;&gt;s3://gardenlinux&#45;repo&#45;test -->
<g id="edge2" class="edge">
<title>github.com/gardenlinux/package-snapshot-&gt;s3://gardenlinux-repo-test</title>
<path fill="none" stroke="#000000" d="M316.6076,-875.2758C297.2766,-869.8375 280.519,-863.0979 274.4508,-855.2 265.5904,-843.668 264.7388,-827.6001 266.3248,-813.8081"/>
<polygon fill="#000000" stroke="#000000" points="269.7993,-814.2446 267.9204,-803.8177 262.8869,-813.1405 269.7993,-814.2446"/>
<text text-anchor="middle" x="393.7746" y="-842.6" font-family="Times,serif" font-size="14.00" fill="#000000">publishes snapshot (named as GL version)</text>
<text text-anchor="middle" x="393.7746" y="-825.8" font-family="Times,serif" font-size="14.00" fill="#000000">snapshot should be immutable</text>
</g>
<!-- ghcr.io/gardenlinux/package&#45;snapshot -->
<g id="node4" class="node">
<title>ghcr.io/gardenlinux/package-snapshot</title>
<ellipse fill="none" stroke="#000000" cx="526" cy="-696.8" rx="158.0156" ry="18"/>
<text text-anchor="middle" x="526" y="-692.6" font-family="Times,serif" font-size="14.00" fill="#000000">ghcr.io/gardenlinux/package-snapshot</text>
</g>
<!-- github.com/gardenlinux/package&#45;snapshot&#45;&gt;ghcr.io/gardenlinux/package&#45;snapshot -->
<g id="edge3" class="edge">
<title>github.com/gardenlinux/package-snapshot-&gt;ghcr.io/gardenlinux/package-snapshot</title>
<path fill="none" stroke="#000000" d="M471.718,-874.8171C489.9968,-869.2481 506.1117,-862.5525 512,-855.2 541.6369,-818.1938 537.811,-759.5542 532.0813,-724.9599"/>
<polygon fill="#000000" stroke="#000000" points="535.5111,-724.2579 530.2769,-715.0463 528.6242,-725.5114 535.5111,-724.2579"/>
<text text-anchor="middle" x="590.8149" y="-781.4" font-family="Times,serif" font-size="14.00" fill="#000000">creates &amp; publishes</text>
</g>
<!-- s3://gardenlinux&#45;repo&#45;test&#45;&gt;ghcr.io/gardenlinux/package&#45;snapshot -->
<g id="edge4" class="edge">
<title>s3://gardenlinux-repo-test-&gt;ghcr.io/gardenlinux/package-snapshot</title>
<path fill="none" stroke="#000000" stroke-dasharray="5,2" d="M307.6688,-768.4118C330.9857,-757.2874 362.6244,-743.0249 391.4978,-732.8 409.2677,-726.5072 428.6926,-720.7076 447.1153,-715.6847"/>
<polygon fill="#000000" stroke="#000000" points="448.1823,-719.0223 456.9357,-713.0534 446.3706,-712.2608 448.1823,-719.0223"/>
<text text-anchor="middle" x="452.2511" y="-737" font-family="Times,serif" font-size="14.00" fill="#000000">ref in /etc/apt/sources</text>
</g>
<!-- github.com/gardenlinux/package&#45;publish -->
<g id="node11" class="node">
<title>github.com/gardenlinux/package-publish</title>
<ellipse fill="none" stroke="#000000" cx="262" cy="-164" rx="169.5738" ry="18"/>
<text text-anchor="middle" x="262" y="-159.8" font-family="Times,serif" font-size="14.00" fill="#000000">github.com/gardenlinux/package-publish</text>
</g>
<!-- s3://gardenlinux&#45;repo&#45;test&#45;&gt;github.com/gardenlinux/package&#45;publish -->
<g id="edge18" class="edge">
<title>s3://gardenlinux-repo-test-&gt;github.com/gardenlinux/package-publish</title>
<path fill="none" stroke="#000000" d="M186.6211,-774.3242C106.6406,-761.3916 0,-736.6721 0,-696.8 0,-696.8 0,-696.8 0,-252.8 0,-218.512 81.5045,-194.8479 153.5951,-180.6232"/>
<polygon fill="#000000" stroke="#000000" points="154.5375,-184.0061 163.6955,-178.6786 153.2141,-177.1324 154.5375,-184.0061"/>
<text text-anchor="middle" x="57.3356" y="-470.6" font-family="Times,serif" font-size="14.00" fill="#000000">mirror dependencies</text>
</g>
<!-- ghcr.io/gardenlinux/package&#45;build -->
<g id="node5" class="node">
<title>ghcr.io/gardenlinux/package-build</title>
<ellipse fill="none" stroke="#000000" cx="302" cy="-608" rx="144.13" ry="18"/>
<text text-anchor="middle" x="302" y="-603.8" font-family="Times,serif" font-size="14.00" fill="#000000">ghcr.io/gardenlinux/package-build</text>
</g>
<!-- ghcr.io/gardenlinux/package&#45;snapshot&#45;&gt;ghcr.io/gardenlinux/package&#45;build -->
<g id="edge5" class="edge">
<title>ghcr.io/gardenlinux/package-snapshot-&gt;ghcr.io/gardenlinux/package-build</title>
<path fill="none" stroke="#000000" stroke-dasharray="5,2" d="M482.2788,-679.4677C445.893,-665.0433 393.96,-644.4556 355.1717,-629.0788"/>
<polygon fill="#000000" stroke="#000000" points="356.197,-625.7203 345.6109,-625.2886 353.6173,-632.2276 356.197,-625.7203"/>
<text text-anchor="middle" x="459.6869" y="-648.2" font-family="Times,serif" font-size="14.00" fill="#000000">based on</text>
</g>
<!-- github.com/gardenlinux/package&#45;A -->
<g id="node7" class="node">
<title>github.com/gardenlinux/package-A</title>
<ellipse fill="none" stroke="#000000" cx="482" cy="-519.2" rx="148.1429" ry="18"/>
<text text-anchor="middle" x="482" y="-515" font-family="Times,serif" font-size="14.00" fill="#000000">github.com/gardenlinux/package-A</text>
</g>
<!-- ghcr.io/gardenlinux/package&#45;build&#45;&gt;github.com/gardenlinux/package&#45;A -->
<g id="edge8" class="edge">
<title>ghcr.io/gardenlinux/package-build-&gt;github.com/gardenlinux/package-A</title>
<path fill="none" stroke="#000000" d="M316.3177,-589.9764C326.3202,-578.4992 340.6047,-564.1575 356.0294,-555.2 368.0584,-548.2145 381.5292,-542.512 395.0664,-537.8782"/>
<polygon fill="#000000" stroke="#000000" points="396.4797,-541.0996 404.9157,-534.69 394.3238,-534.4399 396.4797,-541.0996"/>
<text text-anchor="middle" x="412.9853" y="-559.4" font-family="Times,serif" font-size="14.00" fill="#000000">uses build container</text>
</g>
<!-- github.com/gardenlinux/package&#45;B -->
<g id="node9" class="node">
<title>github.com/gardenlinux/package-B</title>
<ellipse fill="none" stroke="#000000" cx="262" cy="-341.6" rx="147.5806" ry="18"/>
<text text-anchor="middle" x="262" y="-337.4" font-family="Times,serif" font-size="14.00" fill="#000000">github.com/gardenlinux/package-B</text>
</g>
<!-- ghcr.io/gardenlinux/package&#45;build&#45;&gt;github.com/gardenlinux/package&#45;B -->
<g id="edge11" class="edge">
<title>ghcr.io/gardenlinux/package-build-&gt;github.com/gardenlinux/package-B</title>
<path fill="none" stroke="#000000" d="M299.2506,-589.6892C292.3834,-543.9536 274.4432,-424.4719 266.2238,-369.7306"/>
<polygon fill="#000000" stroke="#000000" points="269.6619,-369.056 264.7157,-359.6866 262.7394,-370.0955 269.6619,-369.056"/>
<text text-anchor="middle" x="338.9853" y="-470.6" font-family="Times,serif" font-size="14.00" fill="#000000">uses build container</text>
</g>
<!-- github.com/gardenlinux/package&#45;build -->
<g id="node6" class="node">
<title>github.com/gardenlinux/package-build</title>
<ellipse fill="none" stroke="#000000" cx="189" cy="-696.8" rx="160.9057" ry="18"/>
<text text-anchor="middle" x="189" y="-692.6" font-family="Times,serif" font-size="14.00" fill="#000000">github.com/gardenlinux/package-build</text>
</g>
<!-- github.com/gardenlinux/package&#45;build&#45;&gt;ghcr.io/gardenlinux/package&#45;build -->
<g id="edge6" class="edge">
<title>github.com/gardenlinux/package-build-&gt;ghcr.io/gardenlinux/package-build</title>
<path fill="none" stroke="#000000" d="M211.8672,-678.83C228.945,-665.4096 252.4684,-646.924 271.2014,-632.2028"/>
<polygon fill="#000000" stroke="#000000" points="273.4667,-634.8741 279.1668,-625.9433 269.1414,-629.3702 273.4667,-634.8741"/>
<text text-anchor="middle" x="310.8149" y="-648.2" font-family="Times,serif" font-size="14.00" fill="#000000">creates &amp; publishes</text>
</g>
<!-- github.com/gardenlinux/package&#45;build&#45;&gt;github.com/gardenlinux/package&#45;A -->
<g id="edge7" class="edge">
<title>github.com/gardenlinux/package-build-&gt;github.com/gardenlinux/package-A</title>
<path fill="none" stroke="#000000" d="M286.6842,-682.4899C353.0679,-670.6701 432.7182,-651.6672 455,-626 473.9178,-604.208 479.9148,-571.0015 481.6502,-547.4072"/>
<polygon fill="#000000" stroke="#000000" points="485.1507,-547.4879 482.1787,-537.3184 478.1602,-547.1216 485.1507,-547.4879"/>
<text text-anchor="middle" x="526.0926" y="-603.8" font-family="Times,serif" font-size="14.00" fill="#000000">uses workflow file</text>
</g>
<!-- github.com/gardenlinux/package&#45;build&#45;&gt;github.com/gardenlinux/package&#45;B -->
<g id="edge10" class="edge">
<title>github.com/gardenlinux/package-build-&gt;github.com/gardenlinux/package-B</title>
<path fill="none" stroke="#000000" d="M167.6996,-678.6708C150.7998,-662.1644 130,-636.1341 130,-608 130,-608 130,-608 130,-430.4 130,-397.1096 159.2613,-375.4823 190.2299,-361.9152"/>
<polygon fill="#000000" stroke="#000000" points="191.9437,-364.9951 199.8652,-357.9595 189.2852,-358.5196 191.9437,-364.9951"/>
<text text-anchor="middle" x="182.0926" y="-515" font-family="Times,serif" font-size="14.00" fill="#000000">uses workflow file</text>
</g>
<!-- github.com/gardenlinux/package&#45;A/releases/&lt;version&gt; -->
<g id="node8" class="node">
<title>github.com/gardenlinux/package-A/releases/&lt;version&gt;</title>
<ellipse fill="none" stroke="#000000" cx="513" cy="-430.4" rx="223.1253" ry="18"/>
<text text-anchor="middle" x="513" y="-426.2" font-family="Times,serif" font-size="14.00" fill="#000000">github.com/gardenlinux/package-A/releases/&lt;version&gt;</text>
</g>
<!-- github.com/gardenlinux/package&#45;A&#45;&gt;github.com/gardenlinux/package&#45;A/releases/&lt;version&gt; -->
<g id="edge9" class="edge">
<title>github.com/gardenlinux/package-A-&gt;github.com/gardenlinux/package-A/releases/&lt;version&gt;</title>
<path fill="none" stroke="#000000" d="M488.4232,-500.8006C492.733,-488.4552 498.4883,-471.9689 503.346,-458.0539"/>
<polygon fill="#000000" stroke="#000000" points="506.6995,-459.0669 506.6911,-448.472 500.0906,-456.7597 506.6995,-459.0669"/>
<text text-anchor="middle" x="555.8149" y="-470.6" font-family="Times,serif" font-size="14.00" fill="#000000">creates &amp; publishes</text>
</g>
<!-- github.com/gardenlinux/package&#45;A/releases/&lt;version&gt;&#45;&gt;github.com/gardenlinux/package&#45;B -->
<g id="edge13" class="edge">
<title>github.com/gardenlinux/package-A/releases/&lt;version&gt;-&gt;github.com/gardenlinux/package-B</title>
<path fill="none" stroke="#000000" d="M428.4586,-413.6844C407.1482,-408.4609 384.5279,-402.0265 364.096,-394.4 342.2461,-386.2442 319.067,-374.5302 300.3266,-364.2068"/>
<polygon fill="#000000" stroke="#000000" points="301.9444,-361.1014 291.5086,-359.2724 298.526,-367.21 301.9444,-361.1014"/>
<text text-anchor="middle" x="432.452" y="-381.8" font-family="Times,serif" font-size="14.00" fill="#000000">pulled in as dependency</text>
</g>
<!-- github.com/gardenlinux/package&#45;A/releases/&lt;version&gt;&#45;&gt;github.com/gardenlinux/package&#45;publish -->
<g id="edge16" class="edge">
<title>github.com/gardenlinux/package-A/releases/&lt;version&gt;-&gt;github.com/gardenlinux/package-publish</title>
<path fill="none" stroke="#000000" d="M517.2196,-412.3098C524.8694,-374.6082 536.561,-286.8204 494,-234.8 476.045,-212.8545 412.7829,-194.406 356.8481,-181.8479"/>
<polygon fill="#000000" stroke="#000000" points="357.3822,-178.3818 346.8635,-179.6502 355.8773,-185.2181 357.3822,-178.3818"/>
<text text-anchor="middle" x="544.3801" y="-293" font-family="Times,serif" font-size="14.00" fill="#000000">collects</text>
</g>
<!-- github.com/gardenlinux/package&#45;B/releases/&lt;version&gt; -->
<g id="node10" class="node">
<title>github.com/gardenlinux/package-B/releases/&lt;version&gt;</title>
<ellipse fill="none" stroke="#000000" cx="262" cy="-252.8" rx="222.5631" ry="18"/>
<text text-anchor="middle" x="262" y="-248.6" font-family="Times,serif" font-size="14.00" fill="#000000">github.com/gardenlinux/package-B/releases/&lt;version&gt;</text>
</g>
<!-- github.com/gardenlinux/package&#45;B&#45;&gt;github.com/gardenlinux/package&#45;B/releases/&lt;version&gt; -->
<g id="edge12" class="edge">
<title>github.com/gardenlinux/package-B-&gt;github.com/gardenlinux/package-B/releases/&lt;version&gt;</title>
<path fill="none" stroke="#000000" d="M262,-323.2006C262,-311.0949 262,-295.0076 262,-281.2674"/>
<polygon fill="#000000" stroke="#000000" points="265.5001,-280.872 262,-270.872 258.5001,-280.8721 265.5001,-280.872"/>
<text text-anchor="middle" x="316.8149" y="-293" font-family="Times,serif" font-size="14.00" fill="#000000">creates &amp; publishes</text>
</g>
<!-- github.com/gardenlinux/package&#45;B/releases/&lt;version&gt;&#45;&gt;github.com/gardenlinux/package&#45;publish -->
<g id="edge17" class="edge">
<title>github.com/gardenlinux/package-B/releases/&lt;version&gt;-&gt;github.com/gardenlinux/package-publish</title>
<path fill="none" stroke="#000000" d="M262,-234.4006C262,-222.2949 262,-206.2076 262,-192.4674"/>
<polygon fill="#000000" stroke="#000000" points="265.5001,-192.072 262,-182.072 258.5001,-192.0721 265.5001,-192.072"/>
<text text-anchor="middle" x="283.3801" y="-204.2" font-family="Times,serif" font-size="14.00" fill="#000000">collects</text>
</g>
<!-- aptly -->
<g id="node12" class="node">
<title>aptly</title>
<ellipse fill="none" stroke="#000000" cx="262" cy="-91" rx="30.1958" ry="18"/>
<text text-anchor="middle" x="262" y="-86.8" font-family="Times,serif" font-size="14.00" fill="#000000">aptly</text>
</g>
<!-- github.com/gardenlinux/package&#45;publish&#45;&gt;aptly -->
<g id="edge14" class="edge">
<title>github.com/gardenlinux/package-publish-&gt;aptly</title>
<path fill="none" stroke="#000000" d="M262,-145.9551C262,-137.8828 262,-128.1764 262,-119.1817"/>
<polygon fill="#000000" stroke="#000000" points="265.5001,-119.0903 262,-109.0904 258.5001,-119.0904 265.5001,-119.0903"/>
</g>
<!-- s3://gardenlinux&#45;repo -->
<g id="node13" class="node">
<title>s3://gardenlinux-repo</title>
<ellipse fill="none" stroke="#000000" cx="262" cy="-18" rx="94.3427" ry="18"/>
<text text-anchor="middle" x="262" y="-13.8" font-family="Times,serif" font-size="14.00" fill="#000000">s3://gardenlinux-repo</text>
</g>
<!-- aptly&#45;&gt;s3://gardenlinux&#45;repo -->
<g id="edge15" class="edge">
<title>aptly-&gt;s3://gardenlinux-repo</title>
<path fill="none" stroke="#000000" d="M262,-72.9551C262,-64.8828 262,-55.1764 262,-46.1817"/>
<polygon fill="#000000" stroke="#000000" points="265.5001,-46.0903 262,-36.0904 258.5001,-46.0904 265.5001,-46.0903"/>
</g>
</g>
</svg>